# xmcd
#
# Track frame offsets:
#	150
#	23006
#	48008
#	65980
#	88496
#	106206
#	121726
#	134699
#	154665
#	176031
#	192958
#	221667
#	240619
#	275076
#	289246
#
# Disc length: 4433 seconds
#
# Revision: 3
# Processed by: cddbd v1.5.2PL0 Copyright (c) Steve Scherf et al.
# Submitted via: CDmax 2.0
#
DISCID=e5114f0f
DTITLE=Various Artist - Selected Jazz
DYEAR=2007
DGENRE=Jazz
TTITLE0=Jamie Cullum - Nothing I Do
TTITLE1=Silje Nergaard - How Are You Gonna Deal With It
TTITLE2=Curtis Stigers - Your Mind Is On Vacation
TTITLE3=Ledisi - Blues In The Night
TTITLE4=Till Brönner - Moon River
TTITLE5=Lizz Wright - Salt
TTITLE6=Queen Latifah - I Love Being Here With You
TTITLE7=Diana Krall - 'S Wonderful
TTITLE8=Tord Gustavsen Trio - Where We Went
TTITLE9=Vienna Teng - Transcontinental, 1:30AM
TTITLE10=Manu Katché - Lo
TTITLE11=Madeleine Peyroux - Blue Alert
TTITLE12=Herbie Hancock - Both Sides Now
TTITLE13=The Puppini Sisters - Sway
TTITLE14=Michael Brecker - Tumbleweed
EXTD=Compilation
EXTT0=
EXTT1=
EXTT2=
EXTT3=
EXTT4=
EXTT5=
EXTT6=
EXTT7=
EXTT8=
EXTT9=
EXTT10=
EXTT11=
EXTT12=
EXTT13=
EXTT14=
PLAYORDER=
